<?xml version="1.0" standalone="no"?>
<!DOCTYPE svg PUBLIC "-//W3C//DTD SVG 20010904//EN"
 "http://www.w3.org/TR/2001/REC-SVG-20010904/DTD/svg10.dtd">
<svg version="1.0" xmlns="http://www.w3.org/2000/svg"
 width="1561.000000pt" height="1561.000000pt" viewBox="0 0 1561.000000 1561.000000"
 preserveAspectRatio="xMidYMid meet">

<g transform="translate(0.000000,1561.000000) scale(0.100000,-0.100000)"
fill="#000000" stroke="none">
<path d="M8827 12164 c-4 -4 -42 -11 -85 -15 -66 -7 -137 -17 -302 -45 -19 -4
-39 -10 -45 -14 -5 -4 -32 -11 -59 -15 -27 -3 -56 -10 -65 -15 -9 -5 -43 -16
-76 -25 -33 -9 -68 -20 -77 -26 -10 -5 -27 -9 -37 -9 -11 0 -22 -4 -26 -9 -3
-5 -20 -13 -37 -17 -18 -3 -39 -10 -48 -14 -8 -4 -26 -12 -40 -18 -14 -6 -55
-24 -91 -41 -37 -17 -71 -31 -77 -31 -6 0 -12 -3 -14 -7 -1 -5 -43 -28 -93
-53 -49 -25 -91 -48 -93 -52 -2 -5 -10 -8 -18 -8 -8 0 -14 -4 -14 -10 0 -5 -5
-10 -12 -10 -11 0 -107 -58 -118 -70 -3 -4 -34 -26 -70 -50 -36 -24 -70 -49
-76 -54 -7 -6 -24 -20 -40 -31 -98 -70 -317 -279 -424 -405 -30 -36 -60 -69
-66 -75 -6 -5 -28 -35 -49 -65 -22 -30 -42 -57 -46 -60 -14 -11 -159 -240
-190 -300 -19 -36 -36 -67 -39 -70 -6 -6 -70 -136 -93 -190 -8 -19 -22 -51
-31 -72 -9 -20 -16 -41 -16 -47 0 -6 -4 -19 -9 -29 -21 -42 -41 -94 -41 -107
0 -9 -4 -23 -9 -33 -14 -29 -41 -116 -41 -135 0 -9 -4 -25 -9 -35 -13 -25 -41
-146 -41 -176 0 -14 -4 -35 -9 -48 -22 -56 -54 -392 -55 -558 0 -150 37 -517
55 -552 5 -10 9 -27 9 -39 0 -29 30 -160 41 -181 5 -10 9 -25 9 -34 0 -15 22
-89 41 -139 4 -11 16 -45 26 -75 10 -30 21 -57 24 -60 3 -3 9 -17 13 -33 3
-15 18 -53 32 -85 49 -107 97 -207 103 -212 3 -3 22 -35 41 -73 19 -37 45 -79
57 -94 13 -14 23 -30 23 -34 0 -11 149 -159 160 -159 5 0 15 -6 22 -13 26 -26
104 -63 169 -81 112 -30 315 -11 381 35 14 11 30 19 35 19 6 0 23 11 39 25 16
14 32 25 35 25 9 0 89 81 89 89 0 4 8 16 18 27 29 30 72 125 84 185 21 102 8
292 -23 324 -5 5 -9 17 -9 27 0 10 -4 18 -9 18 -5 0 -12 12 -15 26 -6 22 -50
98 -66 114 -13 13 -126 254 -135 290 -3 14 -10 34 -15 45 -17 38 -40 116 -40
135 0 10 -4 21 -9 24 -9 6 -13 26 -31 161 -5 44 -15 105 -20 136 -13 71 -13
257 0 328 5 31 14 92 20 136 14 118 21 155 31 161 5 3 9 16 9 30 0 27 51 187
80 249 56 121 104 221 110 225 4 3 15 21 26 40 10 19 22 37 25 40 3 3 14 20
24 38 11 17 23 32 27 32 4 0 8 6 8 13 0 8 9 25 21 38 12 13 40 46 63 73 79 93
234 241 286 275 14 8 27 18 30 21 14 17 140 101 140 93 0 -4 4 -3 8 3 6 10 82
56 122 74 8 4 30 14 48 23 19 9 40 17 48 17 8 0 14 5 14 10 0 6 7 10 15 10 8
0 31 7 52 16 77 34 172 64 199 64 11 0 24 3 28 7 7 8 83 23 216 45 94 15 460
22 473 9 6 -6 31 -11 56 -11 47 0 190 -26 226 -40 11 -5 31 -11 45 -14 41 -8
115 -30 120 -36 7 -7 69 -31 98 -37 12 -3 22 -9 22 -14 0 -5 6 -9 13 -9 22 0
235 -116 257 -140 3 -3 32 -25 65 -50 78 -58 219 -199 275 -275 25 -33 47 -62
51 -65 3 -3 9 -12 12 -20 4 -8 21 -37 37 -65 30 -50 43 -75 107 -215 108 -235
300 -383 523 -405 173 -17 329 36 444 151 52 52 96 120 96 148 0 9 4 16 9 16
4 0 16 34 26 76 20 85 17 255 -5 309 -7 17 -16 39 -20 50 -10 26 -40 104 -50
130 -23 58 -128 267 -157 312 -18 29 -33 56 -33 62 0 5 -3 11 -7 13 -5 2 -35
44 -68 93 -33 50 -68 97 -77 106 -10 9 -18 21 -18 27 0 6 -6 15 -12 19 -7 4
-30 29 -51 55 -105 131 -433 428 -473 428 -7 0 -14 7 -18 15 -3 9 -14 19 -23
23 -10 4 -49 28 -88 53 -38 25 -86 54 -105 65 -19 10 -37 21 -40 24 -9 10
-178 90 -189 90 -6 0 -11 4 -11 9 0 5 -16 12 -35 15 -19 4 -35 11 -35 16 0 6
-9 10 -19 10 -11 0 -23 5 -26 10 -3 6 -14 10 -23 10 -9 0 -30 7 -46 15 -15 8
-35 15 -42 15 -8 0 -22 4 -32 9 -9 6 -44 17 -77 26 -33 9 -67 20 -76 25 -9 5
-38 12 -65 15 -27 4 -53 11 -59 15 -5 4 -26 10 -45 13 -19 4 -78 13 -130 22
-52 9 -126 21 -165 27 -83 12 -627 22 -638 12z"/>
<path d="M8835 9494 c-53 -7 -139 -26 -170 -39 -16 -6 -46 -18 -65 -26 -19 -7
-41 -19 -48 -26 -7 -7 -20 -13 -28 -13 -8 0 -14 -4 -14 -8 0 -4 -12 -15 -27
-24 -47 -28 -97 -82 -129 -139 -10 -19 -22 -36 -25 -39 -3 -3 -14 -30 -24 -60
-9 -30 -21 -63 -26 -72 -12 -23 -12 -223 0 -246 4 -9 16 -42 26 -72 45 -141
175 -273 315 -322 94 -32 130 -37 320 -42 183 -4 319 -18 365 -36 11 -5 40
-11 65 -15 46 -6 102 -21 130 -35 9 -4 31 -11 50 -15 19 -4 41 -11 50 -15 8
-5 33 -16 55 -25 22 -9 48 -20 57 -25 10 -6 25 -10 33 -10 8 0 15 -4 15 -9 0
-5 14 -12 30 -16 17 -4 30 -10 30 -13 0 -4 27 -20 60 -37 33 -16 60 -33 60
-37 0 -4 6 -8 13 -8 8 0 25 -9 38 -20 12 -12 39 -31 59 -42 19 -12 37 -25 40
-28 3 -4 37 -33 75 -66 39 -32 96 -86 127 -119 32 -33 63 -64 68 -70 60 -59
240 -317 240 -343 0 -7 5 -12 10 -12 6 0 10 -7 10 -15 0 -8 5 -15 10 -15 6 0
10 -6 10 -14 0 -8 14 -41 30 -73 17 -31 30 -65 30 -75 0 -9 5 -20 10 -23 6 -3
10 -15 10 -26 0 -10 4 -19 9 -19 5 0 11 -18 15 -40 3 -23 10 -49 15 -58 19
-35 32 -90 63 -267 14 -78 14 -482 0 -560 -26 -148 -34 -181 -42 -197 -6 -10
-10 -27 -10 -38 0 -11 -4 -28 -9 -38 -6 -9 -18 -44 -27 -77 -10 -33 -24 -71
-31 -85 -7 -14 -13 -33 -13 -42 0 -10 -4 -18 -8 -18 -4 0 -16 -22 -27 -50 -11
-27 -22 -50 -25 -50 -3 0 -11 -15 -19 -32 -17 -41 -119 -206 -143 -232 -10
-11 -18 -23 -18 -26 0 -4 -8 -16 -17 -27 -10 -12 -37 -43 -59 -69 -89 -105
-260 -265 -312 -293 -11 -6 -26 -17 -34 -24 -21 -20 -114 -77 -126 -77 -5 0
-12 -3 -14 -8 -4 -9 -157 -84 -208 -102 -19 -6 -44 -16 -55 -20 -21 -9 -93
-28 -135 -36 -14 -3 -34 -10 -45 -15 -34 -16 -300 -26 -438 -16 -156 10 -340
4 -382 -13 -16 -7 -46 -19 -65 -27 -181 -73 -296 -194 -354 -373 -22 -64 -26
-274 -7 -293 6 -6 11 -18 11 -27 0 -8 14 -42 31 -75 32 -63 157 -195 184 -195
8 0 15 -4 15 -10 0 -5 7 -10 15 -10 8 0 15 -4 15 -10 0 -5 5 -10 11 -10 6 0
27 -7 47 -16 21 -9 46 -20 57 -25 19 -8 74 -18 240 -41 105 -15 558 -15 655 0
41 6 111 16 155 22 44 7 84 16 89 21 6 5 25 9 42 9 18 0 35 4 38 9 3 4 28 11
55 15 28 4 53 11 56 16 3 6 17 10 30 10 13 0 26 4 29 9 3 5 23 12 43 16 21 4
43 10 48 14 6 4 30 16 55 25 133 51 371 170 408 204 7 6 20 12 28 12 8 0 14 5
14 10 0 6 7 10 15 10 8 0 15 3 15 8 0 4 16 16 35 26 19 11 35 23 35 28 0 4 5
8 10 8 10 0 111 70 136 94 6 6 30 27 54 46 78 62 112 93 204 186 88 88 107
108 191 209 22 26 50 59 63 73 12 14 22 28 22 31 0 3 11 19 25 35 14 16 25 32
25 35 0 3 11 19 25 35 14 16 25 35 25 42 0 7 4 14 9 16 13 5 141 216 141 233
0 8 5 15 10 15 6 0 10 7 10 15 0 8 5 15 10 15 6 0 10 6 10 13 0 7 14 39 30 70
17 32 30 65 30 73 0 8 5 14 10 14 6 0 10 7 10 15 0 8 4 23 10 33 5 9 16 35 25
57 9 22 20 47 25 56 5 9 12 33 15 53 4 20 11 39 16 42 5 3 9 16 9 29 0 13 4
26 9 30 6 3 13 26 17 50 3 25 10 48 15 51 5 3 9 18 9 33 0 15 4 31 9 36 5 6
14 37 20 70 5 33 15 83 21 110 6 28 15 91 21 140 5 50 14 109 19 133 13 55 13
569 0 624 -5 24 -14 81 -19 128 -13 112 -21 162 -28 180 -6 15 -28 114 -39
178 -4 17 -10 32 -14 32 -4 0 -10 20 -13 45 -4 24 -11 54 -17 65 -5 11 -14 29
-20 40 -5 11 -10 27 -10 36 0 9 -7 31 -15 50 -8 19 -22 51 -30 72 -9 20 -20
45 -25 54 -6 10 -10 25 -10 33 0 8 -4 15 -10 15 -5 0 -10 7 -10 15 0 16 -123
258 -140 275 -3 3 -14 22 -24 43 -11 20 -22 37 -26 37 -5 0 -11 11 -14 25 -4
14 -11 25 -16 25 -6 0 -10 7 -10 15 0 8 -4 15 -9 15 -5 0 -12 8 -15 18 -3 9
-17 30 -31 46 -14 16 -25 32 -25 36 0 3 -8 15 -18 26 -9 10 -33 39 -52 64 -19
25 -39 50 -45 56 -5 7 -37 43 -70 80 -95 109 -247 255 -350 337 -33 27 -68 54
-77 62 -9 8 -29 22 -45 32 -15 9 -30 20 -33 24 -3 4 -59 42 -125 85 -112 73
-343 197 -445 238 -25 10 -58 24 -75 31 -16 7 -48 19 -70 26 -22 7 -45 17 -50
21 -6 4 -30 10 -53 14 -23 4 -42 10 -42 14 0 4 -12 10 -27 13 -47 10 -137 33
-153 40 -17 7 -58 14 -155 29 -38 5 -79 14 -90 18 -56 23 -465 47 -580 34z"/>
</g>
</svg>
